<svg xmlns="http://www.w3.org/2000/svg" width="64pt" height="64pt" viewBox="0 0 64 64" style="isolation:isolate"><defs><clipPath id="a"><rect width="64" height="64"/></clipPath></defs><g clip-path="url(#a)"><path d=" M 27.395 2 L 35.073 2 C 39.754 2 43.554 5.8 43.554 10.481 L 43.554 34.586 C 43.554 39.267 39.754 43.068 35.073 43.068 L 27.395 43.068 C 22.714 43.068 18.914 39.267 18.914 34.586 L 18.914 10.481 C 18.914 5.8 22.714 2 27.395 2 Z "/><path d=" M 29.269 51.734 L 29.257 50.172 C 29.252 49.628 28.807 49.187 28.263 49.187 L 26.799 49.187 C 23.142 49.187 19.633 47.728 17.041 45.146 C 14.459 42.554 13 39.045 13 35.388 L 13 35.388 L 13 34.402 L 13 34.402 C 13 33.858 13.442 33.417 13.986 33.417 L 13.986 33.417 L 15.957 33.417 L 15.957 33.417 C 16.501 33.417 16.943 33.858 16.943 34.402 L 16.943 34.402 L 16.943 35.388 L 16.943 35.388 C 16.943 38 17.977 40.513 19.83 42.356 C 21.674 44.209 24.187 45.244 26.799 45.244 L 26.799 45.244 L 35.669 45.244 L 35.669 45.244 C 38.281 45.244 40.795 44.209 42.638 42.356 C 44.491 40.513 45.526 38 45.526 35.388 L 45.526 35.388 L 45.526 34.402 L 45.526 34.402 C 45.526 33.858 45.967 33.417 46.511 33.417 L 46.511 33.417 L 48.483 33.417 L 48.483 33.417 C 49.027 33.417 49.468 33.858 49.468 34.402 L 49.468 34.402 L 49.468 35.388 L 49.468 35.388 C 49.468 39.045 48.009 42.554 45.427 45.146 C 42.835 47.728 39.326 49.187 35.669 49.187 L 35.669 49.187 L 35.669 49.187 L 34.205 49.187 L 34.205 49.187 C 33.661 49.187 33.216 49.628 33.212 50.172 L 33.199 51.734 L 33.216 57.072 C 33.217 57.616 33.661 58.057 34.204 58.057 L 41.026 58.057 C 41.57 58.057 42.012 58.499 42.012 59.043 L 42.012 61.014 C 42.012 61.558 41.57 62 41.026 62 L 33.186 62 L 29.243 62 L 21.442 62 C 20.898 62 20.456 61.558 20.456 61.014 L 20.456 59.043 C 20.456 58.499 20.898 58.057 21.442 58.057 L 28.264 58.057 C 28.808 58.057 29.251 57.616 29.252 57.072 L 29.269 51.734 Z "/></g></svg>